<svg xmlns="http://www.w3.org/2000/svg" viewBox="0 0 24 24" fill="none" shape-rendering="auto" width="512" height="512"><desc>"Bootstrap Icons" by "The Bootstrap Authors", licensed under "MIT". / Remix of the original. - Created with dicebear.com</desc><metadata xmlns:dc="http://purl.org/dc/elements/1.1/" xmlns:cc="http://creativecommons.org/ns#" xmlns:rdf="http://www.w3.org/1999/02/22-rdf-syntax-ns#"><rdf:RDF><cc:Work><dc:title>Bootstrap Icons</dc:title><dc:creator><cc:Agent rdf:about="https://getbootstrap.com/"><dc:title>The Bootstrap Authors</dc:title></cc:Agent></dc:creator><dc:source>https://github.com/twbs/icons</dc:source><cc:license rdf:resource="https://github.com/twbs/icons/blob/main/LICENSE.md" /></cc:Work></rdf:RDF></metadata><mask id="viewboxMask"><rect width="24" height="24" rx="0" ry="0" x="0" y="0" fill="#fff" /></mask><g mask="href(#viewboxMask)"><rect fill="#ffe082" width="24" height="24" x="0" y="0" /><g transform="translate(4 4)"><path d="M7.752.066a.5.5 0 0 1 .496 0l3.75 2.143a.5.5 0 0 1 .252.434v3.995l3.498 2A.5.5 0 0 1 16 9.07v4.286a.5.5 0 0 1-.252.434l-3.75 2.143a.5.5 0 0 1-.496 0l-3.502-2-3.502 2.001a.5.5 0 0 1-.496 0l-3.75-2.143A.5.5 0 0 1 0 13.357V9.071a.5.5 0 0 1 .252-.434L3.75 6.638V2.643a.5.5 0 0 1 .252-.434L7.752.066ZM4.25 7.504 1.508 9.071l2.742 1.567 2.742-1.567L4.25 7.504ZM7.5 9.933l-2.75 1.571v3.134l2.75-1.571V9.933Zm1 3.134 2.75 1.571v-3.134L8.5 9.933v3.134Zm.508-3.996 2.742 1.567 2.742-1.567-2.742-1.567-2.742 1.567Zm2.242-2.433V3.504L8.5 5.076V8.21l2.75-1.572ZM7.5 8.21V5.076L4.75 3.504v3.134L7.5 8.21ZM5.258 2.643 8 4.21l2.742-1.567L8 1.076 5.258 2.643ZM15 9.933l-2.75 1.571v3.134L15 13.067V9.933ZM3.75 14.638v-3.134L1 9.933v3.134l2.75 1.571Z" fill="#fff"/></g></g></svg>
